<svg xmlns="http://www.w3.org/2000/svg" width="33" height="32" viewBox="0 0 33 32" fill="none">
  <g clip-path="url(#clip0_6_10689)">
    <path fill-rule="evenodd" clip-rule="evenodd" d="M16.498 10.0008C12.079 10.0008 8.49805 13.5818 8.49805 18.0008C8.49805 22.4188 12.079 26.0008 16.498 26.0008C20.916 26.0008 24.498 22.4188 24.498 18.0008C24.498 13.5828 20.916 10.0008 16.498 10.0008ZM21.053 21.9058C18.897 24.4218 15.11 24.7128 12.594 22.5558C10.077 20.3998 9.78705 16.6118 11.944 14.0968C14.099 11.5798 17.887 11.2898 20.403 13.4468C22.918 15.6018 23.209 19.3908 21.053 21.9058Z" fill="#A4A1AA"/>
    <path fill-rule="evenodd" clip-rule="evenodd" d="M16.498 14.0008C14.289 14.0008 12.499 15.7918 12.498 17.9998V18.0018C12.498 18.2768 12.722 18.5018 12.998 18.5018C13.274 18.5018 13.498 18.2768 13.498 18.0018V17.9998C13.499 16.3438 14.841 15.0008 16.498 15.0008C16.774 15.0008 16.998 14.7768 16.998 14.5008C16.998 14.2248 16.774 14.0008 16.498 14.0008Z" fill="#A4A1AA"/>
    <path fill-rule="evenodd" clip-rule="evenodd" d="M29.99 9.04182L25.656 8.31882L24.283 4.88482C23.824 3.73982 22.73 2.99982 21.498 2.99982H11.498C10.266 2.99982 9.17205 3.73982 8.71205 4.88582L7.34005 8.31882L3.00705 9.04182C1.55305 9.28282 0.498047 10.5268 0.498047 11.9998V26.9998C0.498047 28.6538 1.84405 29.9998 3.49805 29.9998H29.498C31.152 29.9998 32.498 28.6538 32.498 26.9998V11.9998C32.498 10.5268 31.443 9.28282 29.99 9.04182ZM30.498 26.9998C30.498 27.5528 30.051 27.9998 29.498 27.9998H3.49805C2.94505 27.9998 2.49805 27.5528 2.49805 26.9998V11.9998C2.49805 11.5108 2.85205 11.0938 3.33405 11.0138L8.77805 10.1068L10.569 5.62882C10.722 5.24982 11.089 4.99982 11.498 4.99982H21.498C21.906 4.99982 22.273 5.24882 22.426 5.62882L24.217 10.1068L29.662 11.0138C30.144 11.0938 30.498 11.5108 30.498 11.9998V26.9998Z" fill="#A4A1AA"/>
  </g>
  <defs>
    <clipPath id="clip0_6_10689">
      <rect width="32" height="32" fill="white" transform="translate(0.5 -0.000183105)"/>
    </clipPath>
  </defs>
</svg>