<svg xmlns="http://www.w3.org/2000/svg" width="14" height="14" viewBox="0 0 14 14" fill="none">
  <path fill-rule="evenodd" clip-rule="evenodd" d="M11.5691 3.12743C11.775 3.33166 11.7762 3.66407 11.572 3.86989C9.85957 5.59566 8.49376 7.32337 7.55597 8.62023C7.0874 9.2682 6.72655 9.80743 6.48353 10.1835C6.36205 10.3715 6.27007 10.5186 6.20887 10.618C6.17827 10.6678 6.15536 10.7056 6.14032 10.7306L6.12367 10.7584L6.1198 10.7649L6.11898 10.7663C6.02675 10.9229 5.85994 11.0209 5.67821 11.025C5.49673 11.029 5.32605 10.9391 5.22684 10.7871C5.2268 10.787 5.22642 10.7864 5.22638 10.7864L5.22584 10.7856L5.21932 10.7758C5.21298 10.7664 5.20264 10.7513 5.18831 10.7309C5.15964 10.6901 5.11498 10.6283 5.05425 10.5488C4.93273 10.3898 4.74717 10.1607 4.49681 9.88951C3.99558 9.34656 3.23794 8.63822 2.21812 7.9839C1.97408 7.82732 1.90318 7.50256 2.05976 7.25852C2.21633 7.01448 2.54109 6.94358 2.78513 7.10016C3.89469 7.81205 4.71947 8.58274 5.26832 9.17728C5.40298 9.32315 5.52122 9.45863 5.62319 9.58031C5.87438 9.19272 6.2381 8.65079 6.70512 8.00496C7.66552 6.67683 9.06615 4.90454 10.8267 3.13031C11.0309 2.92449 11.3633 2.9232 11.5691 3.12743Z" fill="white"/>
</svg>