<svg xmlns="http://www.w3.org/2000/svg" width="20" height="20" viewBox="0 0 20 20" fill="none">
  <g clip-path="url(#clip0_399_2262)">
    <path fill-rule="evenodd" clip-rule="evenodd" d="M10 0.000915527C15.5225 0.000915527 20 4.47845 20 10.0009C20 15.5234 15.5225 20.0009 10 20.0009C4.47754 20.0009 0 15.5234 0 10.0009C0 4.47845 4.47754 0.000915527 10 0.000915527ZM8.61328 4.96836H9.83561C10.0586 4.96836 10.2425 5.15228 10.2425 5.37526V10.0856H14.541C14.7656 10.0856 14.9479 10.2695 14.9479 10.4925V11.7148C14.9479 11.9394 14.764 12.1217 14.541 12.1217H8.20475V5.37526C8.20475 5.15066 8.38867 4.96836 8.61328 4.96836ZM10 2.27142C14.2692 2.27142 17.7295 5.73171 17.7295 10.0009C17.7295 14.2701 14.2692 17.7304 10 17.7304C5.73079 17.7304 2.27051 14.2701 2.27051 10.0009C2.27051 5.73334 5.73079 2.27142 10 2.27142Z" fill="#FF8D72"/>
  </g>
  <defs>
    <clipPath id="clip0_399_2262">
      <rect width="20" height="20" fill="white" transform="translate(0 0.000915527)"/>
    </clipPath>
  </defs>
</svg>