<svg xmlns="http://www.w3.org/2000/svg" width="20" height="20" viewBox="0 0 20 20" fill="none">
  <path d="M15.6423 2.36041C14.8827 1.59383 13.9954 0.999625 13.0035 0.593047C10.0185 -0.625899 6.61852 0.072258 4.3428 2.36357C2.83323 3.88778 2 5.8283 2 7.83488C2 9.8383 2.83271 11.7809 4.3428 13.3036L5.17342 14.1333C6.8404 15.7938 8.27793 17.2275 9.51132 19.2204L9.99111 20.0009L10.474 19.2204C11.7074 17.2275 13.1449 15.7938 14.8091 14.1351L15.642 13.3009C18.7859 10.1315 18.7859 5.53015 15.6423 2.36041ZM12.4738 10.6959C11.1034 12.0796 8.88196 12.0796 7.51126 10.6959C6.14108 9.31698 6.14108 7.07751 7.51126 5.69593C8.88196 4.31699 11.1034 4.31699 12.4738 5.69593C13.8411 7.07751 13.8411 9.31646 12.4738 10.6959Z" fill="#FF8D72"/>
</svg>