<svg xmlns="http://www.w3.org/2000/svg" width="24" height="25" viewBox="0 0 24 25" fill="none">
  <g clip-path="url(#clip0_15_7044)">
    <path d="M18.6308 7.64C20.5994 7.64 22.2008 6.0386 22.2008 4.07C22.2008 2.1014 20.5994 0.5 18.6308 0.5C16.6622 0.5 15.0608 2.1014 15.0608 4.07C15.0608 6.0386 16.6622 7.64 18.6308 7.64ZM20.1608 15.8V9.4658C19.6508 9.6086 19.1408 9.68 18.6308 9.68C18.4574 9.68 18.2942 9.68 18.1208 9.68V15.8C18.1208 17.4932 16.754 18.86 15.0608 18.86H6.90078C5.20758 18.86 3.84078 17.4932 3.84078 15.8V7.64C3.84078 5.9468 5.20758 4.58 6.90078 4.58H13.0208C13.0208 4.4168 13.0208 4.2434 13.0208 4.07C13.0208 3.56 13.0922 3.05 13.235 2.54H6.90078C4.08558 2.54 1.80078 4.8248 1.80078 7.64V15.8C1.80078 18.6152 4.08558 20.9 6.90078 20.9H15.0608C17.876 20.9 20.1608 18.6152 20.1608 15.8Z" fill="black"/>
  </g>
  <defs>
    <clipPath id="clip0_15_7044">
      <rect width="24" height="24" fill="white" transform="translate(0 0.5)"/>
    </clipPath>
  </defs>
</svg>